<?xml version="1.0" encoding="utf-8"?>
<svg xmlns="http://www.w3.org/2000/svg" viewBox="0 0 100 100" width="500" height="500">
  <circle cx="78" cy="14" r="1" fill="#f1bc19" />
  <circle cx="50" cy="50" r="38" fill="#f9dbd2" />
  <circle cx="84" cy="16" r="4" fill="#f1bc19" />
  <circle cx="14" cy="26" r="2" fill="#ee3e54" />
  <circle cx="78" cy="77" r="2" fill="#fbcd59" />
  <circle cx="17" cy="78" r="4" fill="#fbcd59" />
  <circle cx="24" cy="83" r="2" fill="#ee3e54" />
  <circle cx="64.483" cy="78.517" r="2.483" fill="#fff" />
  <circle cx="21" cy="34" r="1" fill="#fff" />
  <circle cx="86" cy="31" r="1" fill="#f1bc19" />
  <circle cx="76" cy="34" r="2" fill="#fff" />
  <g>
    <path fill="#77cbd2" d="M24.727,63C19.907,63,16,58.852,16,53.735c0-4.744,3.39-8.353,7.721-8.89 c0.09-0.011,0.154-0.083,0.144-0.172c-0.045-0.375-0.084-0.898-0.107-1.233c-0.395-5.745,3.907-9.265,8.727-9.265 c2.7,0,5.087,1.326,6.686,3.373c0.055,0.071,0.162,0.039,0.169-0.05C39.726,32.19,43.87,28,48.97,28 c5.355,0,9.697,4.609,9.697,10.294c0,0.83-0.122,1.624-0.303,2.394c-0.017,0.074,0.07,0.119,0.126,0.066 c1.518-1.442,3.233-2.388,5.257-2.388c3.393,0,6.302,2.284,6.463,6.019c0.005,0.107,0.097,0.187,0.206,0.176 C75.271,44.07,80,48.688,80,53.735C80,58.852,76.093,63,71.273,63s-18.424,0-18.424,0S27.167,63,24.727,63z" />
    <path fill="#472b29" d="M42.938,39c-0.008,0-0.016,0-0.024-0.001c-0.138-0.013-0.238-0.135-0.226-0.272 c0.446-4.714,3.009-6.292,4.497-6.812c2.159-0.755,4.393-0.224,5.308,0.724c0.096,0.099,0.093,0.258-0.007,0.354 c-0.099,0.096-0.257,0.093-0.354-0.006c-0.789-0.817-2.841-1.28-4.782-0.6c-1.375,0.481-3.745,1.95-4.164,6.387 C43.174,38.903,43.065,39,42.938,39z" />
    <path fill="#472b29" d="M25.625,59.625c-0.001,0-0.003,0-0.005,0c-1.852-0.035-3.417-0.909-4.405-2.462 c-1.079-1.696-1.258-3.955-0.456-5.757c0.056-0.126,0.205-0.183,0.33-0.127c0.126,0.056,0.183,0.204,0.127,0.33 c-0.736,1.653-0.57,3.728,0.421,5.286c0.895,1.407,2.313,2.199,3.993,2.231c0.138,0.003,0.248,0.117,0.245,0.255 C25.873,59.516,25.761,59.625,25.625,59.625z" />
    <path fill="#472b29" d="M22.534,49.865c-0.076,0-0.152-0.035-0.201-0.101c-0.082-0.111-0.059-0.268,0.053-0.35 c1.395-1.031,3.347-1.436,5.674-1.176c-0.597-1.465-0.925-2.833-0.976-4.073c-0.005-0.138,0.102-0.254,0.24-0.26 c0.146-0.01,0.254,0.102,0.26,0.24c0.052,1.29,0.424,2.736,1.104,4.296c0.037,0.083,0.025,0.179-0.03,0.251 s-0.146,0.108-0.234,0.096c-2.382-0.344-4.367,0.012-5.74,1.027C22.638,49.849,22.586,49.865,22.534,49.865z" />
    <path fill="#472b29" d="M27.537,42.385c-0.021,0-0.043-0.003-0.064-0.008c-0.133-0.036-0.213-0.173-0.177-0.306 c0.357-1.341,1.145-2.405,2.278-3.077c0.118-0.07,0.272-0.031,0.342,0.088c0.071,0.119,0.031,0.272-0.087,0.343 c-1.018,0.604-1.727,1.564-2.049,2.776C27.749,42.311,27.648,42.385,27.537,42.385z" />
    <path fill="#472b29" d="M35.563,39.875c-0.055,0-0.11-0.018-0.156-0.055c-1.02-0.815-2.377-1.186-3.723-1.022 c-0.141,0.018-0.262-0.08-0.279-0.218c-0.017-0.137,0.081-0.262,0.217-0.279c1.48-0.183,2.974,0.229,4.097,1.127 c0.108,0.086,0.125,0.244,0.039,0.352C35.708,39.843,35.636,39.875,35.563,39.875z" />
    <path fill="#472b29" d="M64.368,73.214c-1.228,0-2.456-0.467-3.39-1.402l-0.291-0.29c-1.87-1.87-1.87-4.912,0-6.781 l3.119-3.119c1.87-1.87,4.912-1.869,6.781,0l0.291,0.29c1.87,1.87,1.87,4.912,0,6.781l-3.119,3.119 C66.824,72.747,65.596,73.214,64.368,73.214z M67.197,62.218c-0.747,0-1.449,0.291-1.977,0.819l-3.119,3.119 c-0.528,0.528-0.818,1.23-0.818,1.976c0,0.747,0.291,1.448,0.818,1.976l0.291,0.29c1.09,1.09,2.863,1.09,3.953,0l3.119-3.119 c1.089-1.09,1.089-2.863,0-3.952l-0.291-0.29C68.645,62.509,67.943,62.218,67.197,62.218z" />
    <path fill="#472b29" d="M77.804,59.779c-1.228,0-2.456-0.467-3.391-1.402l-0.291-0.29c-1.87-1.87-1.87-4.912,0-6.781 l3.119-3.119c1.869-1.869,4.912-1.87,6.781,0l0.291,0.29c1.87,1.87,1.87,4.912,0,6.781l-3.119,3.119 C80.259,59.312,79.031,59.779,77.804,59.779z M80.631,48.785c-0.716,0-1.431,0.272-1.976,0.817l-3.119,3.119 c-1.089,1.09-1.089,2.863,0,3.952l0.291,0.29c1.056,1.057,2.897,1.056,3.953,0l3.119-3.119c0.528-0.528,0.818-1.23,0.818-1.976 c0-0.747-0.291-1.448-0.818-1.976l-0.291-0.29C82.063,49.057,81.347,48.785,80.631,48.785z" />
    <path fill="#472b29" d="M68.611,64.889c-0.256,0-0.512-0.098-0.707-0.293c-0.391-0.39-0.391-1.024,0-1.414l7.778-7.778 c0.391-0.391,1.023-0.391,1.414,0c0.391,0.39,0.391,1.024,0,1.414l-7.778,7.778C69.123,64.792,68.867,64.889,68.611,64.889z" />
    <path fill="#472b29" d="M57.001,40.37c-0.103,0.441-0.001,0.896,0.279,1.25c0.281,0.354,0.702,0.558,1.155,0.558 c0.381,0,0.743-0.145,1.019-0.408c1.418-1.348,2.823-2.003,4.293-2.003c2.342,0,4.926,1.464,5.064,4.68 c0.037,0.85,0.733,1.516,1.584,1.516l0.091-0.001l0.07-0.007c0.189-0.019,0.382-0.029,0.574-0.029 c0.954,0,1.89,0.246,2.768,0.654c1.117,0.519,1.792-0.657,0.951-1.085c-1.165-0.594-2.423-0.969-3.719-0.969 c-0.237,0-0.476,0.012-0.714,0.036c-0.007,0-0.014,0.001-0.021,0.001c-0.1,0-0.181-0.076-0.186-0.176 c-0.161-3.735-3.07-6.019-6.463-6.019c-2.024,0-3.739,0.946-5.257,2.388c-0.017,0.016-0.036,0.023-0.055,0.023 c-0.044,0-0.083-0.038-0.071-0.089c0.18-0.771,0.303-1.564,0.303-2.394C58.667,32.609,54.325,28,48.97,28 c-5.1,0-9.244,4.19-9.63,9.499c-0.004,0.055-0.047,0.088-0.092,0.088c-0.027,0-0.055-0.012-0.076-0.039 c-1.599-2.046-3.986-3.373-6.687-3.373c-4.82,0-9.122,3.52-8.727,9.265c0.023,0.334,0.063,0.858,0.107,1.232 c0.01,0.088-0.053,0.16-0.144,0.171C19.39,45.382,16,48.991,16,53.735C16,58.852,19.907,63,24.727,63c1.117,0,27.92,0,34.085,0 c1.035,0,1.059-1.4,0-1.4H24.727c-4.04,0-7.327-3.528-7.327-7.865c0-3.88,2.731-7.034,6.494-7.501 c0.852-0.105,1.462-0.88,1.361-1.727c-0.042-0.353-0.079-0.847-0.101-1.162c-0.149-2.174,0.469-4.071,1.789-5.484 c1.356-1.452,3.375-2.285,5.541-2.285c2.141,0,4.176,1.033,5.583,2.834c0.286,0.367,0.716,0.577,1.18,0.577 c0.778,0,1.432-0.609,1.489-1.387c0.334-4.599,3.951-8.201,8.234-8.201c4.575,0,8.297,3.99,8.297,8.894 C57.267,38.935,57.182,39.595,57.001,40.37z" />
    <path fill="#472b29" d="M35.5,59.75h-8c-0.138,0-0.25-0.112-0.25-0.25s0.112-0.25,0.25-0.25h8 c0.138,0,0.25,0.112,0.25,0.25S35.638,59.75,35.5,59.75z" />
    <path fill="#472b29" d="M58.5,59.75h-21c-0.138,0-0.25-0.112-0.25-0.25s0.112-0.25,0.25-0.25h21 c0.138,0,0.25,0.112,0.25,0.25S58.638,59.75,58.5,59.75z" />
  </g>
</svg>