<?xml version="1.0" encoding="utf-8"?>
<svg xmlns="http://www.w3.org/2000/svg" viewBox="0 0 50 50" width="500" height="500">
  <path d="M11 3C10.447 3 10 3.448 10 4L10 18C10 18.552 10.447 19 11 19L13.011719 19L13.011719 18C13.011719 16.591 13.61125 15.239969 14.65625 14.292969C15.14325 13.851969 15.711312 13.523687 16.320312 13.304688L13.349609 10.759766L14.650391 9.2402344L17.410156 11.605469L21.257812 7.3300781L22.744141 8.6699219L18.775391 13.078125C21.170391 13.458125 23.011719 15.619578 23.011719 18.142578L23.011719 19L25 19C25.553 19 26 18.552 26 18L26 4C26 3.448 25.553 3 25 3L11 3 z M 30 3C29.447 3 29 3.448 29 4L29 18C29 18.552 29.447 19 30 19L44 19C44.553 19 45 18.552 45 18L45 4C45 3.448 44.553 3 44 3L30 3 z M 18.318359 15.015625C17.477359 14.933625 16.626047 15.207391 15.998047 15.775391C15.371047 16.343391 15.011719 17.154 15.011719 18L15.011719 35.257812L10.222656 30.46875C9.0896562 29.33675 7.2834219 29.198156 6.1074219 30.160156C5.4484219 30.699156 5.0459063 31.493891 5.0039062 32.337891C4.9619063 33.183891 5.2799062 34.012328 5.8789062 34.611328L16.400391 45.103516C17.627391 46.326516 19.257234 47 20.990234 47L29.511719 47C33.095719 47 36.011719 44.084 36.011719 40.5L36.011719 31.142578C36.011719 29.539578 34.828359 28.167625 33.318359 28.015625C32.476359 27.933625 31.626047 28.207391 30.998047 28.775391C30.996047 28.777391 30.993234 28.77825 30.990234 28.78125C30.829234 27.33825 29.714359 26.155625 28.318359 26.015625C27.475359 25.935625 26.626047 26.207391 25.998047 26.775391C25.927047 26.839391 25.857922 26.907516 25.794922 26.978516C25.386922 25.919516 24.443359 25.127625 23.318359 25.015625C22.481359 24.935625 21.636766 25.202672 21.009766 25.763672L21.009766 18.142578C21.009766 16.539578 19.827359 15.166625 18.318359 15.015625 z" />
</svg>