<?xml version="1.0" encoding="utf-8"?>
<svg xmlns="http://www.w3.org/2000/svg" viewBox="0 0 48 48" width="144" height="144">
  <path d="M37.5,5h-27C6.92,5,4,7.92,4,11.5v19c0,3.58,2.92,6.5,6.5,6.5H12v5.5c0,0.95,0.53,1.81,1.38,2.24C13.74,44.91,14.12,45,14.5,45c0.53,0,1.06-0.17,1.5-0.5L26,37h11.5c3.58,0,6.5-2.92,6.5-6.5v-19C44,7.916,41.084,5,37.5,5z M32,23h4.19c0.357,0,0.688,0.19,0.866,0.5c0.179,0.311,0.179,0.691-0.001,1.001C35.807,26.659,33.486,28,31,28c-2.785,0-5.188-1.639-6.315-4C20.921,24,14.641,24,14,24c-1.657,0-3-1.343-3-3s1.343-3,3-3c1.137,0,7.074,0,10.685,0c1.126-2.361,3.53-4,6.315-4c2.486,0,4.807,1.341,6.056,3.499c0.18,0.31,0.18,0.69,0.001,1.001c-0.179,0.31-0.509,0.5-0.866,0.5H32c-1.103,0-2,0.897-2,2S30.897,23,32,23z" />
</svg>